<svg xmlns="http://www.w3.org/2000/svg" xmlns:xlink="http://www.w3.org/1999/xlink" width="2000" zoomAndPan="magnify" viewBox="0 0 1500 1499.999933" height="2000" preserveAspectRatio="xMidYMid meet" version="1.0"><defs><g/><clipPath id="f00a42543e"><path d="M 0 52.5 L 1500 52.5 L 1500 1447.5 L 0 1447.5 Z M 0 52.5 " clip-rule="nonzero"/></clipPath></defs><g fill="#000000" fill-opacity="1"><g transform="translate(570.928688, 195.525242)"><g><path d="M 19.78125 0.65625 C 16.738281 0.65625 14.007812 -0.0351562 11.59375 -1.421875 C 9.175781 -2.804688 7.269531 -4.847656 5.875 -7.546875 C 4.476562 -10.242188 3.78125 -13.46875 3.78125 -17.21875 C 3.78125 -20.988281 4.476562 -24.222656 5.875 -26.921875 C 7.269531 -29.617188 9.175781 -31.660156 11.59375 -33.046875 C 14.007812 -34.429688 16.738281 -35.125 19.78125 -35.125 C 23.425781 -35.125 26.328125 -34.4375 28.484375 -33.0625 C 30.640625 -31.6875 32.195312 -29.851562 33.15625 -27.5625 L 29.6875 -25.0625 L 29.0625 -25.0625 C 28.125 -26.957031 26.921875 -28.347656 25.453125 -29.234375 C 23.984375 -30.117188 22.09375 -30.5625 19.78125 -30.5625 C 17.65625 -30.5625 15.789062 -30.0625 14.1875 -29.0625 C 12.582031 -28.0625 11.335938 -26.5625 10.453125 -24.5625 C 9.566406 -22.5625 9.125 -20.113281 9.125 -17.21875 C 9.125 -14.34375 9.570312 -11.910156 10.46875 -9.921875 C 11.363281 -7.929688 12.609375 -6.429688 14.203125 -5.421875 C 15.796875 -4.410156 17.65625 -3.90625 19.78125 -3.90625 C 22.175781 -3.90625 24.160156 -4.445312 25.734375 -5.53125 C 27.304688 -6.613281 28.539062 -8.320312 29.4375 -10.65625 L 30.09375 -10.65625 L 33.4375 -8.6875 C 32.539062 -5.789062 30.941406 -3.507812 28.640625 -1.84375 C 26.335938 -0.175781 23.382812 0.65625 19.78125 0.65625 Z M 19.78125 0.65625 "/></g></g></g><g fill="#000000" fill-opacity="1"><g transform="translate(606.457772, 195.525242)"><g><path d="M 19.78125 0.65625 C 16.53125 0.65625 13.703125 -0.03125 11.296875 -1.40625 C 8.890625 -2.78125 7.035156 -4.804688 5.734375 -7.484375 C 4.429688 -10.160156 3.78125 -13.40625 3.78125 -17.21875 C 3.78125 -21.03125 4.429688 -24.28125 5.734375 -26.96875 C 7.035156 -29.65625 8.890625 -31.6875 11.296875 -33.0625 C 13.703125 -34.4375 16.53125 -35.125 19.78125 -35.125 C 23.03125 -35.125 25.859375 -34.4375 28.265625 -33.0625 C 30.671875 -31.6875 32.523438 -29.65625 33.828125 -26.96875 C 35.128906 -24.28125 35.78125 -21.03125 35.78125 -17.21875 C 35.78125 -13.40625 35.128906 -10.160156 33.828125 -7.484375 C 32.523438 -4.804688 30.671875 -2.78125 28.265625 -1.40625 C 25.859375 -0.03125 23.03125 0.65625 19.78125 0.65625 Z M 19.78125 -3.90625 C 23.21875 -3.90625 25.847656 -4.988281 27.671875 -7.15625 C 29.492188 -9.320312 30.40625 -12.675781 30.40625 -17.21875 C 30.40625 -21.78125 29.492188 -25.144531 27.671875 -27.3125 C 25.847656 -29.476562 23.21875 -30.5625 19.78125 -30.5625 C 16.34375 -30.5625 13.707031 -29.472656 11.875 -27.296875 C 10.039062 -25.117188 9.125 -21.757812 9.125 -17.21875 C 9.125 -12.675781 10.039062 -9.320312 11.875 -7.15625 C 13.707031 -4.988281 16.34375 -3.90625 19.78125 -3.90625 Z M 19.78125 -3.90625 "/></g></g></g><g fill="#000000" fill-opacity="1"><g transform="translate(646.017854, 195.525242)"><g><path d="M 15.71875 0.65625 C 13.550781 0.65625 11.546875 0.367188 9.703125 -0.203125 C 7.859375 -0.773438 6.300781 -1.5625 5.03125 -2.5625 C 3.757812 -3.5625 2.863281 -4.6875 2.34375 -5.9375 L 5.34375 -9.0625 L 6 -9.0625 C 7.125 -7.351562 8.476562 -6.066406 10.0625 -5.203125 C 11.644531 -4.335938 13.53125 -3.90625 15.71875 -3.90625 C 18.257812 -3.90625 20.191406 -4.398438 21.515625 -5.390625 C 22.835938 -6.378906 23.5 -7.757812 23.5 -9.53125 C 23.5 -10.882812 23.097656 -12.003906 22.296875 -12.890625 C 21.492188 -13.773438 20.195312 -14.4375 18.40625 -14.875 L 12.59375 -16.3125 C 9.488281 -17.0625 7.222656 -18.25 5.796875 -19.875 C 4.367188 -21.5 3.65625 -23.507812 3.65625 -25.90625 C 3.65625 -27.78125 4.132812 -29.410156 5.09375 -30.796875 C 6.050781 -32.179688 7.429688 -33.25 9.234375 -34 C 11.035156 -34.75 13.175781 -35.125 15.65625 -35.125 C 18.820312 -35.125 21.316406 -34.679688 23.140625 -33.796875 C 24.960938 -32.910156 26.382812 -31.675781 27.40625 -30.09375 L 24.53125 -27.28125 L 23.90625 -27.28125 C 22.800781 -28.550781 21.597656 -29.46875 20.296875 -30.03125 C 18.992188 -30.59375 17.445312 -30.875 15.65625 -30.875 C 13.382812 -30.875 11.644531 -30.46875 10.4375 -29.65625 C 9.226562 -28.84375 8.625 -27.664062 8.625 -26.125 C 8.625 -24.726562 9.050781 -23.601562 9.90625 -22.75 C 10.757812 -21.894531 12.25 -21.207031 14.375 -20.6875 L 20.09375 -19.3125 C 23.09375 -18.601562 25.257812 -17.425781 26.59375 -15.78125 C 27.925781 -14.132812 28.59375 -12.070312 28.59375 -9.59375 C 28.59375 -7.570312 28.113281 -5.789062 27.15625 -4.25 C 26.195312 -2.707031 24.75 -1.503906 22.8125 -0.640625 C 20.875 0.222656 18.507812 0.65625 15.71875 0.65625 Z M 15.71875 0.65625 "/></g></g></g><g fill="#000000" fill-opacity="1"><g transform="translate(677.890905, 195.525242)"><g><path d="M 6 0 L 6 -34.46875 L 10.84375 -34.46875 L 10.84375 -29.375 L 11.5 -29.25 C 12.664062 -31.1875 14.078125 -32.648438 15.734375 -33.640625 C 17.390625 -34.628906 19.375 -35.125 21.6875 -35.125 C 24.351562 -35.125 26.414062 -34.617188 27.875 -33.609375 C 29.332031 -32.597656 30.46875 -30.96875 31.28125 -28.71875 L 31.9375 -28.71875 C 33.125 -30.820312 34.585938 -32.414062 36.328125 -33.5 C 38.066406 -34.582031 40.207031 -35.125 42.75 -35.125 C 46.289062 -35.125 48.929688 -34.164062 50.671875 -32.25 C 52.410156 -30.332031 53.28125 -27.414062 53.28125 -23.5 L 53.28125 0 L 48.1875 0 L 48.1875 -23.375 C 48.1875 -25.875 47.660156 -27.71875 46.609375 -28.90625 C 45.554688 -30.09375 43.863281 -30.6875 41.53125 -30.6875 C 38.78125 -30.6875 36.535156 -29.6875 34.796875 -27.6875 C 33.054688 -25.6875 32.1875 -22.394531 32.1875 -17.8125 L 32.1875 0 L 27.09375 0 L 27.09375 -23.375 C 27.09375 -25.875 26.566406 -27.71875 25.515625 -28.90625 C 24.460938 -30.09375 22.769531 -30.6875 20.4375 -30.6875 C 17.6875 -30.6875 15.441406 -29.71875 13.703125 -27.78125 C 11.960938 -25.84375 11.09375 -22.695312 11.09375 -18.34375 L 11.09375 0 Z M 6 0 "/></g></g></g><g fill="#000000" fill-opacity="1"><g transform="translate(736.637314, 195.525242)"><g><path d="M 8.5625 -41.125 C 7.476562 -41.125 6.597656 -41.460938 5.921875 -42.140625 C 5.242188 -42.816406 4.90625 -43.675781 4.90625 -44.71875 C 4.90625 -45.757812 5.242188 -46.617188 5.921875 -47.296875 C 6.597656 -47.972656 7.476562 -48.3125 8.5625 -48.3125 C 9.644531 -48.3125 10.523438 -47.972656 11.203125 -47.296875 C 11.878906 -46.617188 12.21875 -45.757812 12.21875 -44.71875 C 12.21875 -43.675781 11.878906 -42.816406 11.203125 -42.140625 C 10.523438 -41.460938 9.644531 -41.125 8.5625 -41.125 Z M 6 0 L 6 -34.46875 L 11.09375 -34.46875 L 11.09375 0 Z M 6 0 "/></g></g></g><g fill="#000000" fill-opacity="1"><g transform="translate(753.730025, 195.525242)"><g><path d="M 19.78125 0.65625 C 16.738281 0.65625 14.007812 -0.0351562 11.59375 -1.421875 C 9.175781 -2.804688 7.269531 -4.847656 5.875 -7.546875 C 4.476562 -10.242188 3.78125 -13.46875 3.78125 -17.21875 C 3.78125 -20.988281 4.476562 -24.222656 5.875 -26.921875 C 7.269531 -29.617188 9.175781 -31.660156 11.59375 -33.046875 C 14.007812 -34.429688 16.738281 -35.125 19.78125 -35.125 C 23.425781 -35.125 26.328125 -34.4375 28.484375 -33.0625 C 30.640625 -31.6875 32.195312 -29.851562 33.15625 -27.5625 L 29.6875 -25.0625 L 29.0625 -25.0625 C 28.125 -26.957031 26.921875 -28.347656 25.453125 -29.234375 C 23.984375 -30.117188 22.09375 -30.5625 19.78125 -30.5625 C 17.65625 -30.5625 15.789062 -30.0625 14.1875 -29.0625 C 12.582031 -28.0625 11.335938 -26.5625 10.453125 -24.5625 C 9.566406 -22.5625 9.125 -20.113281 9.125 -17.21875 C 9.125 -14.34375 9.570312 -11.910156 10.46875 -9.921875 C 11.363281 -7.929688 12.609375 -6.429688 14.203125 -5.421875 C 15.796875 -4.410156 17.65625 -3.90625 19.78125 -3.90625 C 22.175781 -3.90625 24.160156 -4.445312 25.734375 -5.53125 C 27.304688 -6.613281 28.539062 -8.320312 29.4375 -10.65625 L 30.09375 -10.65625 L 33.4375 -8.6875 C 32.539062 -5.789062 30.941406 -3.507812 28.640625 -1.84375 C 26.335938 -0.175781 23.382812 0.65625 19.78125 0.65625 Z M 19.78125 0.65625 "/></g></g></g><g fill="#000000" fill-opacity="1"><g transform="translate(789.259098, 195.525242)"><g><path d="M 19.78125 0.65625 C 16.738281 0.65625 14.007812 -0.0351562 11.59375 -1.421875 C 9.175781 -2.804688 7.269531 -4.847656 5.875 -7.546875 C 4.476562 -10.242188 3.78125 -13.46875 3.78125 -17.21875 C 3.78125 -20.988281 4.476562 -24.222656 5.875 -26.921875 C 7.269531 -29.617188 9.175781 -31.660156 11.59375 -33.046875 C 14.007812 -34.429688 16.738281 -35.125 19.78125 -35.125 C 23.425781 -35.125 26.328125 -34.4375 28.484375 -33.0625 C 30.640625 -31.6875 32.195312 -29.851562 33.15625 -27.5625 L 29.6875 -25.0625 L 29.0625 -25.0625 C 28.125 -26.957031 26.921875 -28.347656 25.453125 -29.234375 C 23.984375 -30.117188 22.09375 -30.5625 19.78125 -30.5625 C 17.65625 -30.5625 15.789062 -30.0625 14.1875 -29.0625 C 12.582031 -28.0625 11.335938 -26.5625 10.453125 -24.5625 C 9.566406 -22.5625 9.125 -20.113281 9.125 -17.21875 C 9.125 -14.34375 9.570312 -11.910156 10.46875 -9.921875 C 11.363281 -7.929688 12.609375 -6.429688 14.203125 -5.421875 C 15.796875 -4.410156 17.65625 -3.90625 19.78125 -3.90625 C 22.175781 -3.90625 24.160156 -4.445312 25.734375 -5.53125 C 27.304688 -6.613281 28.539062 -8.320312 29.4375 -10.65625 L 30.09375 -10.65625 L 33.4375 -8.6875 C 32.539062 -5.789062 30.941406 -3.507812 28.640625 -1.84375 C 26.335938 -0.175781 23.382812 0.65625 19.78125 0.65625 Z M 19.78125 0.65625 "/></g></g></g><g fill="#000000" fill-opacity="1"><g transform="translate(824.788193, 195.525242)"><g><path d="M 14.21875 0.65625 C 10.820312 0.65625 8.171875 -0.226562 6.265625 -2 C 4.359375 -3.769531 3.40625 -6.300781 3.40625 -9.59375 C 3.40625 -11.632812 3.828125 -13.359375 4.671875 -14.765625 C 5.515625 -16.171875 6.820312 -17.316406 8.59375 -18.203125 C 10.363281 -19.085938 12.675781 -19.769531 15.53125 -20.25 C 18.03125 -20.664062 19.929688 -21.132812 21.234375 -21.65625 C 22.535156 -22.175781 23.410156 -22.757812 23.859375 -23.40625 C 24.304688 -24.050781 24.53125 -24.863281 24.53125 -25.84375 C 24.53125 -27.40625 23.992188 -28.601562 22.921875 -29.4375 C 21.847656 -30.269531 20.125 -30.6875 17.75 -30.6875 C 15.519531 -30.6875 13.609375 -30.253906 12.015625 -29.390625 C 10.421875 -28.523438 8.957031 -27.238281 7.625 -25.53125 L 7 -25.53125 L 4.5 -29.0625 C 5.957031 -30.914062 7.8125 -32.390625 10.0625 -33.484375 C 12.3125 -34.578125 14.875 -35.125 17.75 -35.125 C 21.8125 -35.125 24.804688 -34.234375 26.734375 -32.453125 C 28.660156 -30.671875 29.625 -28.207031 29.625 -25.0625 L 29.625 -6.78125 C 29.625 -4.863281 30.4375 -3.90625 32.0625 -3.90625 C 32.601562 -3.90625 33.125 -4 33.625 -4.1875 L 34.0625 -4.0625 L 34.65625 -0.53125 C 34.28125 -0.28125 33.785156 -0.0859375 33.171875 0.046875 C 32.554688 0.179688 31.925781 0.25 31.28125 0.25 C 29.382812 0.25 27.953125 -0.164062 26.984375 -1 C 26.015625 -1.832031 25.394531 -3.0625 25.125 -4.6875 L 24.46875 -4.75 C 23.488281 -2.9375 22.164062 -1.582031 20.5 -0.6875 C 18.832031 0.207031 16.738281 0.65625 14.21875 0.65625 Z M 15.34375 -3.40625 C 17.257812 -3.40625 18.921875 -3.847656 20.328125 -4.734375 C 21.734375 -5.617188 22.8125 -6.863281 23.5625 -8.46875 C 24.3125 -10.070312 24.6875 -11.925781 24.6875 -14.03125 L 24.6875 -18.40625 L 24.09375 -18.53125 C 23.320312 -17.988281 22.382812 -17.535156 21.28125 -17.171875 C 20.175781 -16.804688 18.632812 -16.476562 16.65625 -16.1875 C 14.65625 -15.914062 13.066406 -15.5 11.890625 -14.9375 C 10.710938 -14.375 9.875 -13.660156 9.375 -12.796875 C 8.875 -11.929688 8.625 -10.863281 8.625 -9.59375 C 8.625 -7.570312 9.21875 -6.035156 10.40625 -4.984375 C 11.59375 -3.929688 13.238281 -3.40625 15.34375 -3.40625 Z M 15.34375 -3.40625 "/></g></g></g><g fill="#000000" fill-opacity="1"><g transform="translate(860.442258, 195.525242)"><g><path d="M 15.71875 0.65625 C 13.550781 0.65625 11.546875 0.367188 9.703125 -0.203125 C 7.859375 -0.773438 6.300781 -1.5625 5.03125 -2.5625 C 3.757812 -3.5625 2.863281 -4.6875 2.34375 -5.9375 L 5.34375 -9.0625 L 6 -9.0625 C 7.125 -7.351562 8.476562 -6.066406 10.0625 -5.203125 C 11.644531 -4.335938 13.53125 -3.90625 15.71875 -3.90625 C 18.257812 -3.90625 20.191406 -4.398438 21.515625 -5.390625 C 22.835938 -6.378906 23.5 -7.757812 23.5 -9.53125 C 23.5 -10.882812 23.097656 -12.003906 22.296875 -12.890625 C 21.492188 -13.773438 20.195312 -14.4375 18.40625 -14.875 L 12.59375 -16.3125 C 9.488281 -17.0625 7.222656 -18.25 5.796875 -19.875 C 4.367188 -21.5 3.65625 -23.507812 3.65625 -25.90625 C 3.65625 -27.78125 4.132812 -29.410156 5.09375 -30.796875 C 6.050781 -32.179688 7.429688 -33.25 9.234375 -34 C 11.035156 -34.75 13.175781 -35.125 15.65625 -35.125 C 18.820312 -35.125 21.316406 -34.679688 23.140625 -33.796875 C 24.960938 -32.910156 26.382812 -31.675781 27.40625 -30.09375 L 24.53125 -27.28125 L 23.90625 -27.28125 C 22.800781 -28.550781 21.597656 -29.46875 20.296875 -30.03125 C 18.992188 -30.59375 17.445312 -30.875 15.65625 -30.875 C 13.382812 -30.875 11.644531 -30.46875 10.4375 -29.65625 C 9.226562 -28.84375 8.625 -27.664062 8.625 -26.125 C 8.625 -24.726562 9.050781 -23.601562 9.90625 -22.75 C 10.757812 -21.894531 12.25 -21.207031 14.375 -20.6875 L 20.09375 -19.3125 C 23.09375 -18.601562 25.257812 -17.425781 26.59375 -15.78125 C 27.925781 -14.132812 28.59375 -12.070312 28.59375 -9.59375 C 28.59375 -7.570312 28.113281 -5.789062 27.15625 -4.25 C 26.195312 -2.707031 24.75 -1.503906 22.8125 -0.640625 C 20.875 0.222656 18.507812 0.65625 15.71875 0.65625 Z M 15.71875 0.65625 "/></g></g></g><g fill="#000000" fill-opacity="1"><g transform="translate(892.315333, 195.525242)"><g><path d="M 32.84375 -16.0625 L 9.15625 -16.0625 C 9.300781 -11.875 10.304688 -8.800781 12.171875 -6.84375 C 14.035156 -4.882812 16.59375 -3.90625 19.84375 -3.90625 C 22.300781 -3.90625 24.28125 -4.34375 25.78125 -5.21875 C 27.28125 -6.09375 28.457031 -7.46875 29.3125 -9.34375 L 29.96875 -9.34375 L 33.28125 -7.375 C 32.28125 -4.875 30.679688 -2.910156 28.484375 -1.484375 C 26.285156 -0.0546875 23.40625 0.65625 19.84375 0.65625 C 16.507812 0.65625 13.644531 0 11.25 -1.3125 C 8.851562 -2.625 7.007812 -4.613281 5.71875 -7.28125 C 4.425781 -9.945312 3.78125 -13.257812 3.78125 -17.21875 C 3.78125 -21.132812 4.460938 -24.4375 5.828125 -27.125 C 7.191406 -29.8125 9.054688 -31.816406 11.421875 -33.140625 C 13.785156 -34.460938 16.488281 -35.125 19.53125 -35.125 C 23.945312 -35.125 27.394531 -33.878906 29.875 -31.390625 C 32.351562 -28.898438 33.601562 -25.207031 33.625 -20.3125 C 33.625 -18.394531 33.582031 -17.101562 33.5 -16.4375 Z M 28.59375 -20.3125 C 28.507812 -23.976562 27.695312 -26.644531 26.15625 -28.3125 C 24.613281 -29.976562 22.40625 -30.8125 19.53125 -30.8125 C 16.507812 -30.8125 14.140625 -29.972656 12.421875 -28.296875 C 10.703125 -26.617188 9.65625 -23.957031 9.28125 -20.3125 Z M 28.59375 -20.3125 "/></g></g></g><g clip-path="url(#f00a42543e)"><path fill="#cb7cfd" d="M 750 505.617188 C 732.253906 505.617188 717.867188 512.113281 717.867188 520.121094 C 717.867188 528.125 732.253906 534.632812 750 534.632812 C 767.753906 534.632812 782.125 528.125 782.125 520.121094 C 782.125 512.113281 767.753906 505.617188 750 505.617188 Z M 987.441406 537.441406 C 973.160156 537.441406 961.550781 542.679688 961.550781 549.132812 C 961.550781 555.59375 973.160156 560.808594 987.441406 560.808594 C 1001.730469 560.808594 1013.328125 555.59375 1013.328125 549.132812 C 1013.328125 542.679688 1001.730469 537.441406 987.441406 537.441406 Z M 989.320312 716.730469 C 1043.546875 702.210938 1076.726562 682.738281 1076.726562 661.339844 C 1076.726562 616.394531 930.445312 579.960938 750 579.960938 C 569.558594 579.960938 423.285156 616.394531 423.285156 661.339844 C 423.285156 682.738281 456.457031 702.210938 510.679688 716.730469 C 340.652344 695.042969 224.285156 650.96875 224.285156 600.109375 C 224.285156 527.789062 459.65625 469.167969 750 469.167969 C 1040.34375 469.167969 1275.714844 527.789062 1275.714844 600.109375 C 1275.714844 650.96875 1159.347656 695.042969 989.320312 716.730469 Z M 1238.421875 806.175781 C 1225.53125 807.53125 1215.34375 817.722656 1213.964844 830.613281 L 1211.851562 850.425781 L 1209.742188 830.613281 C 1208.363281 817.722656 1198.195312 807.53125 1185.304688 806.175781 L 1165.492188 804.046875 L 1185.304688 801.9375 C 1198.195312 800.578125 1208.363281 790.386719 1209.742188 777.496094 L 1211.851562 757.6875 L 1213.964844 777.496094 C 1215.34375 790.386719 1225.53125 800.578125 1238.421875 801.9375 L 1258.230469 804.046875 Z M 343.585938 852.535156 C 330.703125 853.910156 320.511719 864.101562 319.144531 876.992188 L 317.027344 896.796875 L 314.917969 876.992188 C 313.542969 864.101562 303.359375 853.910156 290.46875 852.535156 L 270.65625 850.425781 L 290.46875 848.308594 C 303.359375 846.933594 313.542969 836.765625 314.917969 823.875 L 317.027344 804.046875 L 319.144531 823.875 C 320.511719 836.765625 330.703125 846.933594 343.585938 848.308594 L 363.398438 850.425781 Z M 750 430.492188 C 1018.230469 430.492188 1238.277344 494.535156 1260.40625 559.914062 C 1208.671875 501.558594 999.796875 457.917969 750 457.917969 C 500.199219 457.917969 291.335938 501.558594 239.59375 559.914062 C 261.714844 494.535156 481.78125 430.492188 750 430.492188 Z M 400.496094 297.195312 C 415.730469 295.566406 427.761719 283.535156 429.390625 268.300781 L 431.882812 244.898438 L 434.375 268.300781 C 436.003906 283.535156 448.035156 295.566406 463.261719 297.195312 L 486.675781 299.695312 L 463.261719 302.179688 C 448.035156 303.808594 436.003906 315.839844 434.375 331.070312 L 431.882812 354.476562 L 429.390625 331.070312 C 427.761719 315.839844 415.730469 303.808594 400.496094 302.179688 L 377.089844 299.695312 Z M 750 274.46875 C 847.023438 274.46875 929.253906 339.78125 957.675781 430.082031 C 893.976562 423.25 823.769531 419.480469 750 419.480469 C 676.238281 419.480469 606.03125 423.25 542.324219 430.082031 C 570.746094 339.78125 652.972656 274.46875 750 274.46875 Z M 1134.101562 382.621094 C 1149.332031 381.007812 1161.363281 368.957031 1162.992188 353.742188 L 1165.492188 330.324219 L 1167.976562 353.742188 C 1169.605469 368.957031 1181.636719 381.007812 1196.871094 382.621094 L 1220.273438 385.121094 L 1196.871094 387.605469 C 1181.636719 389.234375 1169.605469 401.265625 1167.976562 416.496094 L 1165.492188 439.914062 L 1162.992188 416.496094 C 1161.363281 401.265625 1149.332031 389.234375 1134.101562 387.605469 L 1110.695312 385.121094 Z M 750 52.742188 C 335.800781 52.742188 0.0273438 388.511719 0.0273438 802.71875 C 0.0273438 1076.726562 146.972656 1316.390625 366.355469 1447.257812 L 685.972656 716.226562 C 626.785156 709.96875 585.238281 695.34375 585.238281 678.269531 C 585.238281 655.550781 659 637.113281 750 637.113281 C 841 637.113281 914.769531 655.550781 914.769531 678.269531 C 914.769531 695.34375 873.222656 709.96875 814.019531 716.226562 L 1133.652344 1447.257812 C 1353.019531 1316.390625 1499.980469 1076.726562 1499.980469 802.71875 C 1499.980469 388.511719 1164.207031 52.742188 750 52.742188 Z M 884.214844 406.875 C 895.730469 407.808594 907.066406 408.84375 918.253906 409.96875 C 888.773438 355.117188 837.019531 308.816406 776.976562 299.695312 C 823.769531 321.308594 861.808594 359.425781 884.214844 406.875 Z M 512.558594 537.441406 C 498.261719 537.441406 486.675781 542.679688 486.675781 549.132812 C 486.675781 555.59375 498.261719 560.808594 512.558594 560.808594 C 526.855469 560.808594 538.441406 555.59375 538.441406 549.132812 C 538.441406 542.679688 526.855469 537.441406 512.558594 537.441406 " fill-opacity="1" fill-rule="nonzero"/></g></svg>