<svg xmlns="http://www.w3.org/2000/svg" xmlns:xlink="http://www.w3.org/1999/xlink" width="2000" zoomAndPan="magnify" viewBox="0 0 1500 1499.999933" height="2000" preserveAspectRatio="xMidYMid meet" version="1.0"><defs><g/><clipPath id="4acf5111ed"><path d="M 75.691406 25.300781 L 1424.191406 25.300781 L 1424.191406 1475.050781 L 75.691406 1475.050781 Z M 75.691406 25.300781 " clip-rule="nonzero"/></clipPath></defs><g fill="#000000" fill-opacity="1"><g transform="translate(631.372827, 212.59997)"><g><path d="M 15.71875 0.65625 C 13.550781 0.65625 11.546875 0.367188 9.703125 -0.203125 C 7.859375 -0.773438 6.300781 -1.5625 5.03125 -2.5625 C 3.757812 -3.5625 2.863281 -4.6875 2.34375 -5.9375 L 5.34375 -9.0625 L 6 -9.0625 C 7.125 -7.351562 8.476562 -6.066406 10.0625 -5.203125 C 11.644531 -4.335938 13.53125 -3.90625 15.71875 -3.90625 C 18.257812 -3.90625 20.191406 -4.398438 21.515625 -5.390625 C 22.835938 -6.378906 23.5 -7.757812 23.5 -9.53125 C 23.5 -10.882812 23.097656 -12.003906 22.296875 -12.890625 C 21.492188 -13.773438 20.195312 -14.4375 18.40625 -14.875 L 12.59375 -16.3125 C 9.488281 -17.0625 7.222656 -18.25 5.796875 -19.875 C 4.367188 -21.5 3.65625 -23.507812 3.65625 -25.90625 C 3.65625 -27.78125 4.132812 -29.410156 5.09375 -30.796875 C 6.050781 -32.179688 7.429688 -33.25 9.234375 -34 C 11.035156 -34.75 13.175781 -35.125 15.65625 -35.125 C 18.820312 -35.125 21.316406 -34.679688 23.140625 -33.796875 C 24.960938 -32.910156 26.382812 -31.675781 27.40625 -30.09375 L 24.53125 -27.28125 L 23.90625 -27.28125 C 22.800781 -28.550781 21.597656 -29.46875 20.296875 -30.03125 C 18.992188 -30.59375 17.445312 -30.875 15.65625 -30.875 C 13.382812 -30.875 11.644531 -30.46875 10.4375 -29.65625 C 9.226562 -28.84375 8.625 -27.664062 8.625 -26.125 C 8.625 -24.726562 9.050781 -23.601562 9.90625 -22.75 C 10.757812 -21.894531 12.25 -21.207031 14.375 -20.6875 L 20.09375 -19.3125 C 23.09375 -18.601562 25.257812 -17.425781 26.59375 -15.78125 C 27.925781 -14.132812 28.59375 -12.070312 28.59375 -9.59375 C 28.59375 -7.570312 28.113281 -5.789062 27.15625 -4.25 C 26.195312 -2.707031 24.75 -1.503906 22.8125 -0.640625 C 20.875 0.222656 18.507812 0.65625 15.71875 0.65625 Z M 15.71875 0.65625 "/></g></g></g><g fill="#000000" fill-opacity="1"><g transform="translate(663.245879, 212.59997)"><g><path d="M 6 13.96875 L 6 -34.46875 L 11.09375 -34.46875 L 11.09375 -29.3125 L 11.75 -29.1875 C 14.3125 -33.144531 18.070312 -35.125 23.03125 -35.125 C 25.90625 -35.125 28.414062 -34.46875 30.5625 -33.15625 C 32.707031 -31.84375 34.375 -29.847656 35.5625 -27.171875 C 36.75 -24.492188 37.34375 -21.175781 37.34375 -17.21875 C 37.34375 -13.28125 36.71875 -9.976562 35.46875 -7.3125 C 34.21875 -4.644531 32.488281 -2.648438 30.28125 -1.328125 C 28.070312 -0.00390625 25.53125 0.65625 22.65625 0.65625 C 20.320312 0.65625 18.25 0.25 16.4375 -0.5625 C 14.625 -1.375 13.0625 -2.707031 11.75 -4.5625 L 11.09375 -4.4375 L 11.09375 13.96875 Z M 21.53125 -3.90625 C 28.507812 -3.90625 32 -8.34375 32 -17.21875 C 32 -26.113281 28.507812 -30.5625 21.53125 -30.5625 C 19.488281 -30.5625 17.6875 -30.09375 16.125 -29.15625 C 14.5625 -28.21875 13.332031 -26.753906 12.4375 -24.765625 C 11.539062 -22.773438 11.09375 -20.257812 11.09375 -17.21875 C 11.09375 -14.195312 11.539062 -11.691406 12.4375 -9.703125 C 13.332031 -7.710938 14.5625 -6.25 16.125 -5.3125 C 17.6875 -4.375 19.488281 -3.90625 21.53125 -3.90625 Z M 21.53125 -3.90625 "/></g></g></g><g fill="#000000" fill-opacity="1"><g transform="translate(704.368365, 212.59997)"><g><path d="M 14.21875 0.65625 C 10.820312 0.65625 8.171875 -0.226562 6.265625 -2 C 4.359375 -3.769531 3.40625 -6.300781 3.40625 -9.59375 C 3.40625 -11.632812 3.828125 -13.359375 4.671875 -14.765625 C 5.515625 -16.171875 6.820312 -17.316406 8.59375 -18.203125 C 10.363281 -19.085938 12.675781 -19.769531 15.53125 -20.25 C 18.03125 -20.664062 19.929688 -21.132812 21.234375 -21.65625 C 22.535156 -22.175781 23.410156 -22.757812 23.859375 -23.40625 C 24.304688 -24.050781 24.53125 -24.863281 24.53125 -25.84375 C 24.53125 -27.40625 23.992188 -28.601562 22.921875 -29.4375 C 21.847656 -30.269531 20.125 -30.6875 17.75 -30.6875 C 15.519531 -30.6875 13.609375 -30.253906 12.015625 -29.390625 C 10.421875 -28.523438 8.957031 -27.238281 7.625 -25.53125 L 7 -25.53125 L 4.5 -29.0625 C 5.957031 -30.914062 7.8125 -32.390625 10.0625 -33.484375 C 12.3125 -34.578125 14.875 -35.125 17.75 -35.125 C 21.8125 -35.125 24.804688 -34.234375 26.734375 -32.453125 C 28.660156 -30.671875 29.625 -28.207031 29.625 -25.0625 L 29.625 -6.78125 C 29.625 -4.863281 30.4375 -3.90625 32.0625 -3.90625 C 32.601562 -3.90625 33.125 -4 33.625 -4.1875 L 34.0625 -4.0625 L 34.65625 -0.53125 C 34.28125 -0.28125 33.785156 -0.0859375 33.171875 0.046875 C 32.554688 0.179688 31.925781 0.25 31.28125 0.25 C 29.382812 0.25 27.953125 -0.164062 26.984375 -1 C 26.015625 -1.832031 25.394531 -3.0625 25.125 -4.6875 L 24.46875 -4.75 C 23.488281 -2.9375 22.164062 -1.582031 20.5 -0.6875 C 18.832031 0.207031 16.738281 0.65625 14.21875 0.65625 Z M 15.34375 -3.40625 C 17.257812 -3.40625 18.921875 -3.847656 20.328125 -4.734375 C 21.734375 -5.617188 22.8125 -6.863281 23.5625 -8.46875 C 24.3125 -10.070312 24.6875 -11.925781 24.6875 -14.03125 L 24.6875 -18.40625 L 24.09375 -18.53125 C 23.320312 -17.988281 22.382812 -17.535156 21.28125 -17.171875 C 20.175781 -16.804688 18.632812 -16.476562 16.65625 -16.1875 C 14.65625 -15.914062 13.066406 -15.5 11.890625 -14.9375 C 10.710938 -14.375 9.875 -13.660156 9.375 -12.796875 C 8.875 -11.929688 8.625 -10.863281 8.625 -9.59375 C 8.625 -7.570312 9.21875 -6.035156 10.40625 -4.984375 C 11.59375 -3.929688 13.238281 -3.40625 15.34375 -3.40625 Z M 15.34375 -3.40625 "/></g></g></g><g fill="#000000" fill-opacity="1"><g transform="translate(740.022442, 212.59997)"><g><path d="M 19.78125 0.65625 C 16.738281 0.65625 14.007812 -0.0351562 11.59375 -1.421875 C 9.175781 -2.804688 7.269531 -4.847656 5.875 -7.546875 C 4.476562 -10.242188 3.78125 -13.46875 3.78125 -17.21875 C 3.78125 -20.988281 4.476562 -24.222656 5.875 -26.921875 C 7.269531 -29.617188 9.175781 -31.660156 11.59375 -33.046875 C 14.007812 -34.429688 16.738281 -35.125 19.78125 -35.125 C 23.425781 -35.125 26.328125 -34.4375 28.484375 -33.0625 C 30.640625 -31.6875 32.195312 -29.851562 33.15625 -27.5625 L 29.6875 -25.0625 L 29.0625 -25.0625 C 28.125 -26.957031 26.921875 -28.347656 25.453125 -29.234375 C 23.984375 -30.117188 22.09375 -30.5625 19.78125 -30.5625 C 17.65625 -30.5625 15.789062 -30.0625 14.1875 -29.0625 C 12.582031 -28.0625 11.335938 -26.5625 10.453125 -24.5625 C 9.566406 -22.5625 9.125 -20.113281 9.125 -17.21875 C 9.125 -14.34375 9.570312 -11.910156 10.46875 -9.921875 C 11.363281 -7.929688 12.609375 -6.429688 14.203125 -5.421875 C 15.796875 -4.410156 17.65625 -3.90625 19.78125 -3.90625 C 22.175781 -3.90625 24.160156 -4.445312 25.734375 -5.53125 C 27.304688 -6.613281 28.539062 -8.320312 29.4375 -10.65625 L 30.09375 -10.65625 L 33.4375 -8.6875 C 32.539062 -5.789062 30.941406 -3.507812 28.640625 -1.84375 C 26.335938 -0.175781 23.382812 0.65625 19.78125 0.65625 Z M 19.78125 0.65625 "/></g></g></g><g fill="#000000" fill-opacity="1"><g transform="translate(775.551526, 212.59997)"><g><path d="M 32.84375 -16.0625 L 9.15625 -16.0625 C 9.300781 -11.875 10.304688 -8.800781 12.171875 -6.84375 C 14.035156 -4.882812 16.59375 -3.90625 19.84375 -3.90625 C 22.300781 -3.90625 24.28125 -4.34375 25.78125 -5.21875 C 27.28125 -6.09375 28.457031 -7.46875 29.3125 -9.34375 L 29.96875 -9.34375 L 33.28125 -7.375 C 32.28125 -4.875 30.679688 -2.910156 28.484375 -1.484375 C 26.285156 -0.0546875 23.40625 0.65625 19.84375 0.65625 C 16.507812 0.65625 13.644531 0 11.25 -1.3125 C 8.851562 -2.625 7.007812 -4.613281 5.71875 -7.28125 C 4.425781 -9.945312 3.78125 -13.257812 3.78125 -17.21875 C 3.78125 -21.132812 4.460938 -24.4375 5.828125 -27.125 C 7.191406 -29.8125 9.054688 -31.816406 11.421875 -33.140625 C 13.785156 -34.460938 16.488281 -35.125 19.53125 -35.125 C 23.945312 -35.125 27.394531 -33.878906 29.875 -31.390625 C 32.351562 -28.898438 33.601562 -25.207031 33.625 -20.3125 C 33.625 -18.394531 33.582031 -17.101562 33.5 -16.4375 Z M 28.59375 -20.3125 C 28.507812 -23.976562 27.695312 -26.644531 26.15625 -28.3125 C 24.613281 -29.976562 22.40625 -30.8125 19.53125 -30.8125 C 16.507812 -30.8125 14.140625 -29.972656 12.421875 -28.296875 C 10.703125 -26.617188 9.65625 -23.957031 9.28125 -20.3125 Z M 28.59375 -20.3125 "/></g></g></g><g fill="#000000" fill-opacity="1"><g transform="translate(812.29928, 212.59997)"><g><path d="M 19.78125 0.65625 C 16.738281 0.65625 14.007812 -0.0351562 11.59375 -1.421875 C 9.175781 -2.804688 7.269531 -4.847656 5.875 -7.546875 C 4.476562 -10.242188 3.78125 -13.46875 3.78125 -17.21875 C 3.78125 -20.988281 4.476562 -24.222656 5.875 -26.921875 C 7.269531 -29.617188 9.175781 -31.660156 11.59375 -33.046875 C 14.007812 -34.429688 16.738281 -35.125 19.78125 -35.125 C 23.425781 -35.125 26.328125 -34.4375 28.484375 -33.0625 C 30.640625 -31.6875 32.195312 -29.851562 33.15625 -27.5625 L 29.6875 -25.0625 L 29.0625 -25.0625 C 28.125 -26.957031 26.921875 -28.347656 25.453125 -29.234375 C 23.984375 -30.117188 22.09375 -30.5625 19.78125 -30.5625 C 17.65625 -30.5625 15.789062 -30.0625 14.1875 -29.0625 C 12.582031 -28.0625 11.335938 -26.5625 10.453125 -24.5625 C 9.566406 -22.5625 9.125 -20.113281 9.125 -17.21875 C 9.125 -14.34375 9.570312 -11.910156 10.46875 -9.921875 C 11.363281 -7.929688 12.609375 -6.429688 14.203125 -5.421875 C 15.796875 -4.410156 17.65625 -3.90625 19.78125 -3.90625 C 22.175781 -3.90625 24.160156 -4.445312 25.734375 -5.53125 C 27.304688 -6.613281 28.539062 -8.320312 29.4375 -10.65625 L 30.09375 -10.65625 L 33.4375 -8.6875 C 32.539062 -5.789062 30.941406 -3.507812 28.640625 -1.84375 C 26.335938 -0.175781 23.382812 0.65625 19.78125 0.65625 Z M 19.78125 0.65625 "/></g></g></g><g fill="#000000" fill-opacity="1"><g transform="translate(847.828375, 212.59997)"><g><path d="M 14.21875 0.65625 C 10.820312 0.65625 8.171875 -0.226562 6.265625 -2 C 4.359375 -3.769531 3.40625 -6.300781 3.40625 -9.59375 C 3.40625 -11.632812 3.828125 -13.359375 4.671875 -14.765625 C 5.515625 -16.171875 6.820312 -17.316406 8.59375 -18.203125 C 10.363281 -19.085938 12.675781 -19.769531 15.53125 -20.25 C 18.03125 -20.664062 19.929688 -21.132812 21.234375 -21.65625 C 22.535156 -22.175781 23.410156 -22.757812 23.859375 -23.40625 C 24.304688 -24.050781 24.53125 -24.863281 24.53125 -25.84375 C 24.53125 -27.40625 23.992188 -28.601562 22.921875 -29.4375 C 21.847656 -30.269531 20.125 -30.6875 17.75 -30.6875 C 15.519531 -30.6875 13.609375 -30.253906 12.015625 -29.390625 C 10.421875 -28.523438 8.957031 -27.238281 7.625 -25.53125 L 7 -25.53125 L 4.5 -29.0625 C 5.957031 -30.914062 7.8125 -32.390625 10.0625 -33.484375 C 12.3125 -34.578125 14.875 -35.125 17.75 -35.125 C 21.8125 -35.125 24.804688 -34.234375 26.734375 -32.453125 C 28.660156 -30.671875 29.625 -28.207031 29.625 -25.0625 L 29.625 -6.78125 C 29.625 -4.863281 30.4375 -3.90625 32.0625 -3.90625 C 32.601562 -3.90625 33.125 -4 33.625 -4.1875 L 34.0625 -4.0625 L 34.65625 -0.53125 C 34.28125 -0.28125 33.785156 -0.0859375 33.171875 0.046875 C 32.554688 0.179688 31.925781 0.25 31.28125 0.25 C 29.382812 0.25 27.953125 -0.164062 26.984375 -1 C 26.015625 -1.832031 25.394531 -3.0625 25.125 -4.6875 L 24.46875 -4.75 C 23.488281 -2.9375 22.164062 -1.582031 20.5 -0.6875 C 18.832031 0.207031 16.738281 0.65625 14.21875 0.65625 Z M 15.34375 -3.40625 C 17.257812 -3.40625 18.921875 -3.847656 20.328125 -4.734375 C 21.734375 -5.617188 22.8125 -6.863281 23.5625 -8.46875 C 24.3125 -10.070312 24.6875 -11.925781 24.6875 -14.03125 L 24.6875 -18.40625 L 24.09375 -18.53125 C 23.320312 -17.988281 22.382812 -17.535156 21.28125 -17.171875 C 20.175781 -16.804688 18.632812 -16.476562 16.65625 -16.1875 C 14.65625 -15.914062 13.066406 -15.5 11.890625 -14.9375 C 10.710938 -14.375 9.875 -13.660156 9.375 -12.796875 C 8.875 -11.929688 8.625 -10.863281 8.625 -9.59375 C 8.625 -7.570312 9.21875 -6.035156 10.40625 -4.984375 C 11.59375 -3.929688 13.238281 -3.40625 15.34375 -3.40625 Z M 15.34375 -3.40625 "/></g></g></g><g fill="#000000" fill-opacity="1"><g transform="translate(883.48244, 212.59997)"><g><path d="M 15.71875 0.65625 C 13.550781 0.65625 11.546875 0.367188 9.703125 -0.203125 C 7.859375 -0.773438 6.300781 -1.5625 5.03125 -2.5625 C 3.757812 -3.5625 2.863281 -4.6875 2.34375 -5.9375 L 5.34375 -9.0625 L 6 -9.0625 C 7.125 -7.351562 8.476562 -6.066406 10.0625 -5.203125 C 11.644531 -4.335938 13.53125 -3.90625 15.71875 -3.90625 C 18.257812 -3.90625 20.191406 -4.398438 21.515625 -5.390625 C 22.835938 -6.378906 23.5 -7.757812 23.5 -9.53125 C 23.5 -10.882812 23.097656 -12.003906 22.296875 -12.890625 C 21.492188 -13.773438 20.195312 -14.4375 18.40625 -14.875 L 12.59375 -16.3125 C 9.488281 -17.0625 7.222656 -18.25 5.796875 -19.875 C 4.367188 -21.5 3.65625 -23.507812 3.65625 -25.90625 C 3.65625 -27.78125 4.132812 -29.410156 5.09375 -30.796875 C 6.050781 -32.179688 7.429688 -33.25 9.234375 -34 C 11.035156 -34.75 13.175781 -35.125 15.65625 -35.125 C 18.820312 -35.125 21.316406 -34.679688 23.140625 -33.796875 C 24.960938 -32.910156 26.382812 -31.675781 27.40625 -30.09375 L 24.53125 -27.28125 L 23.90625 -27.28125 C 22.800781 -28.550781 21.597656 -29.46875 20.296875 -30.03125 C 18.992188 -30.59375 17.445312 -30.875 15.65625 -30.875 C 13.382812 -30.875 11.644531 -30.46875 10.4375 -29.65625 C 9.226562 -28.84375 8.625 -27.664062 8.625 -26.125 C 8.625 -24.726562 9.050781 -23.601562 9.90625 -22.75 C 10.757812 -21.894531 12.25 -21.207031 14.375 -20.6875 L 20.09375 -19.3125 C 23.09375 -18.601562 25.257812 -17.425781 26.59375 -15.78125 C 27.925781 -14.132812 28.59375 -12.070312 28.59375 -9.59375 C 28.59375 -7.570312 28.113281 -5.789062 27.15625 -4.25 C 26.195312 -2.707031 24.75 -1.503906 22.8125 -0.640625 C 20.875 0.222656 18.507812 0.65625 15.71875 0.65625 Z M 15.71875 0.65625 "/></g></g></g><g fill="#000000" fill-opacity="1"><g transform="translate(915.355491, 212.59997)"><g><path d="M 32.84375 -16.0625 L 9.15625 -16.0625 C 9.300781 -11.875 10.304688 -8.800781 12.171875 -6.84375 C 14.035156 -4.882812 16.59375 -3.90625 19.84375 -3.90625 C 22.300781 -3.90625 24.28125 -4.34375 25.78125 -5.21875 C 27.28125 -6.09375 28.457031 -7.46875 29.3125 -9.34375 L 29.96875 -9.34375 L 33.28125 -7.375 C 32.28125 -4.875 30.679688 -2.910156 28.484375 -1.484375 C 26.285156 -0.0546875 23.40625 0.65625 19.84375 0.65625 C 16.507812 0.65625 13.644531 0 11.25 -1.3125 C 8.851562 -2.625 7.007812 -4.613281 5.71875 -7.28125 C 4.425781 -9.945312 3.78125 -13.257812 3.78125 -17.21875 C 3.78125 -21.132812 4.460938 -24.4375 5.828125 -27.125 C 7.191406 -29.8125 9.054688 -31.816406 11.421875 -33.140625 C 13.785156 -34.460938 16.488281 -35.125 19.53125 -35.125 C 23.945312 -35.125 27.394531 -33.878906 29.875 -31.390625 C 32.351562 -28.898438 33.601562 -25.207031 33.625 -20.3125 C 33.625 -18.394531 33.582031 -17.101562 33.5 -16.4375 Z M 28.59375 -20.3125 C 28.507812 -23.976562 27.695312 -26.644531 26.15625 -28.3125 C 24.613281 -29.976562 22.40625 -30.8125 19.53125 -30.8125 C 16.507812 -30.8125 14.140625 -29.972656 12.421875 -28.296875 C 10.703125 -26.617188 9.65625 -23.957031 9.28125 -20.3125 Z M 28.59375 -20.3125 "/></g></g></g><g clip-path="url(#4acf5111ed)"><path fill="#cb7cfd" d="M 513.738281 749.996094 C 513.738281 767.152344 520.019531 781.058594 527.761719 781.058594 C 535.5 781.058594 541.792969 767.152344 541.792969 749.996094 C 541.792969 732.832031 535.5 718.9375 527.761719 718.9375 C 520.019531 718.9375 513.738281 732.832031 513.738281 749.996094 Z M 544.507812 520.449219 C 544.507812 534.257812 549.570312 545.480469 555.808594 545.480469 C 562.054688 545.480469 567.097656 534.257812 567.097656 520.449219 C 567.097656 506.636719 562.054688 495.421875 555.808594 495.421875 C 549.570312 495.421875 544.507812 506.636719 544.507812 520.449219 Z M 717.832031 518.636719 C 703.792969 466.210938 684.972656 434.132812 664.285156 434.132812 C 620.832031 434.132812 585.609375 575.550781 585.609375 749.996094 C 585.609375 924.433594 620.832031 1065.84375 664.285156 1065.84375 C 684.972656 1065.84375 703.792969 1033.773438 717.832031 981.355469 C 696.867188 1145.726562 654.257812 1258.226562 605.085938 1258.226562 C 535.175781 1258.226562 478.503906 1030.683594 478.503906 749.996094 C 478.503906 469.308594 535.175781 241.761719 605.085938 241.761719 C 654.257812 241.761719 696.867188 354.261719 717.832031 518.636719 Z M 804.304688 277.816406 C 805.613281 290.277344 815.464844 300.128906 827.925781 301.460938 L 847.082031 303.503906 L 827.925781 305.542969 C 815.464844 306.875 805.613281 316.703125 804.304688 329.167969 L 802.246094 348.320312 L 800.207031 329.167969 C 798.890625 316.703125 789.039062 306.875 776.574219 305.542969 L 757.429688 303.503906 L 776.574219 301.460938 C 789.039062 300.128906 798.890625 290.277344 800.207031 277.816406 L 802.246094 258.667969 Z M 849.121094 1142.890625 C 850.449219 1155.347656 860.300781 1165.199219 872.765625 1166.523438 L 891.910156 1168.566406 L 872.765625 1170.605469 C 860.300781 1171.9375 850.449219 1181.78125 849.121094 1194.242188 L 847.082031 1213.398438 L 845.035156 1194.242188 C 843.707031 1181.78125 833.875 1171.9375 821.414062 1170.605469 L 802.246094 1168.566406 L 821.414062 1166.523438 C 833.875 1165.199219 843.707031 1155.347656 845.035156 1142.890625 L 847.082031 1123.738281 Z M 441.113281 749.996094 C 441.113281 490.683594 503.023438 277.957031 566.234375 256.5625 C 509.816406 306.578125 467.628906 508.507812 467.628906 749.996094 C 467.628906 991.488281 509.816406 1193.40625 566.234375 1243.429688 C 503.023438 1222.039062 441.113281 1009.292969 441.113281 749.996094 Z M 312.25 1087.875 C 310.675781 1073.148438 299.042969 1061.515625 284.316406 1059.941406 L 261.691406 1057.53125 L 284.316406 1055.121094 C 299.042969 1053.550781 310.675781 1041.917969 312.25 1027.199219 L 314.664062 1004.558594 L 317.070312 1027.199219 C 318.640625 1041.917969 330.273438 1053.550781 345 1055.121094 L 367.625 1057.53125 L 345 1059.941406 C 330.273438 1061.515625 318.640625 1073.148438 317.070312 1087.875 L 314.664062 1110.503906 Z M 290.277344 749.996094 C 290.277344 656.195312 353.417969 576.703125 440.714844 549.226562 C 434.113281 610.804688 430.46875 678.679688 430.46875 749.996094 C 430.46875 821.304688 434.113281 889.175781 440.714844 950.765625 C 353.417969 923.285156 290.277344 843.792969 290.277344 749.996094 Z M 394.832031 378.667969 C 393.273438 363.945312 381.625 352.3125 366.914062 350.738281 L 344.277344 348.320312 L 366.914062 345.917969 C 381.625 344.34375 393.273438 332.710938 394.832031 317.988281 L 397.25 295.363281 L 399.652344 317.988281 C 401.226562 332.710938 412.859375 344.34375 427.585938 345.917969 L 450.222656 348.320312 L 427.585938 350.738281 C 412.859375 352.3125 401.226562 363.945312 399.652344 378.667969 L 397.25 401.292969 Z M 75.925781 749.996094 C 75.925781 1150.417969 400.53125 1475.023438 800.960938 1475.023438 C 1065.855469 1475.023438 1297.546875 1332.964844 1424.0625 1120.882812 L 717.34375 811.894531 C 711.296875 869.113281 697.15625 909.277344 680.652344 909.277344 C 658.6875 909.277344 640.863281 837.96875 640.863281 749.996094 C 640.863281 662.023438 658.6875 590.707031 680.652344 590.707031 C 697.15625 590.707031 711.296875 630.871094 717.34375 688.105469 L 1424.0625 379.101562 C 1297.546875 167.03125 1065.855469 24.957031 800.960938 24.957031 C 400.53125 24.957031 75.925781 349.5625 75.925781 749.996094 Z M 418.28125 620.246094 C 419.183594 609.113281 420.183594 598.152344 421.269531 587.339844 C 368.246094 615.835938 323.484375 665.871094 314.664062 723.914062 C 335.5625 678.679688 372.410156 641.902344 418.28125 620.246094 Z M 544.507812 979.539062 C 544.507812 993.359375 549.570312 1004.558594 555.808594 1004.558594 C 562.054688 1004.558594 567.097656 993.359375 567.097656 979.539062 C 567.097656 965.71875 562.054688 954.519531 555.808594 954.519531 C 549.570312 954.519531 544.507812 965.71875 544.507812 979.539062 " fill-opacity="1" fill-rule="nonzero"/></g></svg>